<svg enable-background="new 0 0 477.827 477.827" version="1.1" viewBox="0 0 477.827 477.827" xml:space="preserve" xmlns="http://www.w3.org/2000/svg">
	<path d="m441.54 160.62c1.489-7.981 2.243-16.082 2.253-24.201-0.091-75.405-61.292-136.46-136.7-136.37-57.402 0.069-108.63 36.034-128.19 89.999-35.029-13.944-74.73 3.148-88.675 38.177-1.207 3.032-2.195 6.146-2.956 9.319-55.932 8.365-94.492 60.488-86.127 116.42 7.502 50.163 50.596 87.275 101.32 87.254h85.333c9.426 0 17.067-7.641 17.067-17.067s-7.641-17.067-17.067-17.067h-85.333c-37.703 0-68.267-30.564-68.267-68.267s30.564-68.267 68.267-68.267c9.426 0 17.067-7.641 17.067-17.067 0.031-18.851 15.338-34.108 34.189-34.077 8.915 0.015 17.471 3.517 23.837 9.757 6.713 6.616 17.519 6.537 24.135-0.176 2.484-2.521 4.123-5.751 4.69-9.245 9.264-55.733 61.954-93.403 117.69-84.139s93.403 61.954 84.139 117.69c-0.552 3.323-1.269 6.617-2.146 9.869-1.962 7.124 0.883 14.701 7.049 18.773 31.416 20.845 39.985 63.212 19.139 94.628-12.617 19.015-33.9 30.468-56.72 30.522h-51.2c-9.426 0-17.067 7.641-17.067 17.067s7.641 17.067 17.067 17.067h51.2c56.554-0.053 102.36-45.943 102.3-102.5-0.028-30.101-13.3-58.666-36.289-78.101z"/>
	<path d="m353.07 363.29c-6.614-6.387-17.099-6.387-23.712 0l-56.235 56.201v-248.94c0-9.426-7.641-17.067-17.067-17.067s-17.067 7.641-17.067 17.067v248.93l-56.201-56.201c-6.78-6.548-17.584-6.36-24.132 0.419-6.388 6.614-6.388 17.099 0 23.713l85.333 85.333c6.656 6.673 17.463 6.687 24.136 0.03 0.01-0.01 0.02-0.02 0.031-0.03l85.333-85.333c6.549-6.779 6.361-17.583-0.419-24.131z"/>
</svg>
